<mxfile host="app.diagrams.net" agent="Mozilla/5.0 (Macintosh; Intel Mac OS X 10.15; rv:132.0) Gecko/20100101 Firefox/132.0" version="24.8.6">
  <diagram name="Page-1" id="667GwFN1eYcLHi_g8ePg">
    <mxGraphModel dx="2126" dy="1104" grid="1" gridSize="10" guides="1" tooltips="1" connect="1" arrows="1" fold="1" page="1" pageScale="1" pageWidth="850" pageHeight="1100" math="0" shadow="0">
      <root>
        <mxCell id="0" />
        <mxCell id="1" parent="0" />
        <mxCell id="78FdNrDkZpptgmzAhslT-3" value="3rd Party Web" style="text;html=1;align=center;verticalAlign=middle;resizable=0;points=[];autosize=1;strokeColor=none;fillColor=none;" vertex="1" parent="1">
          <mxGeometry x="665" y="33" width="100" height="30" as="geometry" />
        </mxCell>
        <mxCell id="78FdNrDkZpptgmzAhslT-6" value="" style="endArrow=classic;html=1;rounded=0;exitX=0.031;exitY=0.416;exitDx=0;exitDy=0;exitPerimeter=0;" edge="1" parent="1" source="78FdNrDkZpptgmzAhslT-43">
          <mxGeometry width="50" height="50" relative="1" as="geometry">
            <mxPoint x="680" y="127" as="sourcePoint" />
            <mxPoint x="120" y="130" as="targetPoint" />
          </mxGeometry>
        </mxCell>
        <mxCell id="78FdNrDkZpptgmzAhslT-7" value="1.User clicks Login in acme.com" style="text;html=1;align=center;verticalAlign=middle;resizable=0;points=[];autosize=1;strokeColor=none;fillColor=none;" vertex="1" parent="1">
          <mxGeometry x="140" y="88" width="200" height="30" as="geometry" />
        </mxCell>
        <mxCell id="78FdNrDkZpptgmzAhslT-8" value="&lt;div&gt;2.&amp;nbsp; /GET {Authserver.com}/authorize?&lt;/div&gt;&lt;div&gt;request_type=code&amp;amp;&lt;/div&gt;&lt;div&gt;scope=[a,b,c,d]&amp;amp;state={&lt;font color=&quot;#9999ff&quot;&gt;XYZ&lt;/font&gt;}&amp;amp;&lt;/div&gt;&lt;div&gt;redirect_uri=acme.com/auth/callback&lt;/div&gt;" style="text;html=1;align=center;verticalAlign=middle;resizable=0;points=[];autosize=1;strokeColor=none;fillColor=none;" vertex="1" parent="1">
          <mxGeometry x="290" y="240" width="220" height="70" as="geometry" />
        </mxCell>
        <mxCell id="78FdNrDkZpptgmzAhslT-11" value="google/amazon/facebook/box ..." style="text;html=1;align=center;verticalAlign=middle;resizable=0;points=[];autosize=1;strokeColor=none;fillColor=none;" vertex="1" parent="1">
          <mxGeometry x="840" y="390" width="190" height="30" as="geometry" />
        </mxCell>
        <mxCell id="78FdNrDkZpptgmzAhslT-16" value="" style="endArrow=classic;html=1;rounded=0;entryX=-0.017;entryY=0.331;entryDx=0;entryDy=0;entryPerimeter=0;" edge="1" parent="1">
          <mxGeometry width="50" height="50" relative="1" as="geometry">
            <mxPoint x="120" y="318" as="sourcePoint" />
            <mxPoint x="647.96" y="318.15999999999997" as="targetPoint" />
          </mxGeometry>
        </mxCell>
        <mxCell id="78FdNrDkZpptgmzAhslT-18" value="" style="endArrow=classic;html=1;rounded=0;" edge="1" parent="1">
          <mxGeometry width="50" height="50" relative="1" as="geometry">
            <mxPoint x="647" y="400" as="sourcePoint" />
            <mxPoint x="120" y="400" as="targetPoint" />
          </mxGeometry>
        </mxCell>
        <mxCell id="78FdNrDkZpptgmzAhslT-19" value="&lt;div&gt;3. Authserver presents&amp;nbsp;&lt;/div&gt;&lt;div&gt;ALLOW/DENY to User&lt;/div&gt;" style="text;html=1;align=center;verticalAlign=middle;resizable=0;points=[];autosize=1;strokeColor=none;fillColor=none;" vertex="1" parent="1">
          <mxGeometry x="290" y="360" width="150" height="40" as="geometry" />
        </mxCell>
        <mxCell id="78FdNrDkZpptgmzAhslT-20" value="" style="endArrow=classic;html=1;rounded=0;entryX=-0.017;entryY=0.331;entryDx=0;entryDy=0;entryPerimeter=0;" edge="1" parent="1">
          <mxGeometry width="50" height="50" relative="1" as="geometry">
            <mxPoint x="120" y="500" as="sourcePoint" />
            <mxPoint x="648" y="500" as="targetPoint" />
          </mxGeometry>
        </mxCell>
        <mxCell id="78FdNrDkZpptgmzAhslT-21" value="&lt;div&gt;4. User click Allow&amp;nbsp;&amp;nbsp;&lt;/div&gt;&lt;div&gt;authserver.com/POST /authorize ALLOW&lt;/div&gt;" style="text;html=1;align=center;verticalAlign=middle;resizable=0;points=[];autosize=1;strokeColor=none;fillColor=none;" vertex="1" parent="1">
          <mxGeometry x="245" y="460" width="240" height="40" as="geometry" />
        </mxCell>
        <mxCell id="78FdNrDkZpptgmzAhslT-22" value="" style="endArrow=classic;html=1;rounded=0;exitX=-0.025;exitY=0.444;exitDx=0;exitDy=0;exitPerimeter=0;" edge="1" parent="1">
          <mxGeometry width="50" height="50" relative="1" as="geometry">
            <mxPoint x="648.5" y="580" as="sourcePoint" />
            <mxPoint x="120" y="580" as="targetPoint" />
          </mxGeometry>
        </mxCell>
        <mxCell id="78FdNrDkZpptgmzAhslT-23" value="&lt;div&gt;5. Redirection to 302 &lt;br&gt;&lt;/div&gt;&lt;div&gt;acme.com/auth/callback?code=&lt;font color=&quot;#97d077&quot;&gt;XXX&lt;/font&gt;&amp;amp;state={&lt;font color=&quot;#9999ff&quot;&gt;XYZ&lt;/font&gt;}&lt;br&gt;&lt;/div&gt;" style="text;html=1;align=center;verticalAlign=middle;resizable=0;points=[];autosize=1;strokeColor=none;fillColor=none;" vertex="1" parent="1">
          <mxGeometry x="221.5" y="540" width="290" height="40" as="geometry" />
        </mxCell>
        <mxCell id="78FdNrDkZpptgmzAhslT-25" value="" style="endArrow=classic;html=1;rounded=0;exitX=0.225;exitY=0.984;exitDx=0;exitDy=0;entryX=0.25;entryY=0;entryDx=0;entryDy=0;exitPerimeter=0;" edge="1" parent="1" source="78FdNrDkZpptgmzAhslT-43" target="78FdNrDkZpptgmzAhslT-42">
          <mxGeometry width="50" height="50" relative="1" as="geometry">
            <mxPoint x="687.5" y="168" as="sourcePoint" />
            <mxPoint x="688" y="280" as="targetPoint" />
          </mxGeometry>
        </mxCell>
        <mxCell id="78FdNrDkZpptgmzAhslT-26" value="&lt;div&gt;6. Acme.com sends &lt;br&gt;&lt;/div&gt;&lt;div&gt;acme.com/auth/token?&lt;/div&gt;&lt;div&gt;code=&lt;font color=&quot;#97d077&quot;&gt;XXX&lt;/font&gt;&amp;amp;&lt;/div&gt;&lt;div&gt;client_id=123&amp;amp;&lt;/div&gt;&lt;div&gt;client_secret=abcd&lt;br&gt;&lt;/div&gt;" style="text;html=1;align=center;verticalAlign=middle;resizable=0;points=[];autosize=1;strokeColor=none;fillColor=none;" vertex="1" parent="1">
          <mxGeometry x="545" y="190" width="140" height="90" as="geometry" />
        </mxCell>
        <mxCell id="78FdNrDkZpptgmzAhslT-27" value="" style="endArrow=classic;html=1;rounded=0;exitX=0.842;exitY=0.009;exitDx=0;exitDy=0;exitPerimeter=0;entryX=0.712;entryY=1.016;entryDx=0;entryDy=0;entryPerimeter=0;" edge="1" parent="1" target="78FdNrDkZpptgmzAhslT-43">
          <mxGeometry width="50" height="50" relative="1" as="geometry">
            <mxPoint x="776.3" y="282.88" as="sourcePoint" />
            <mxPoint x="777.05" y="176.98000000000002" as="targetPoint" />
          </mxGeometry>
        </mxCell>
        <mxCell id="78FdNrDkZpptgmzAhslT-28" value="&lt;div&gt;7. Respond with&amp;nbsp;&lt;/div&gt;&lt;div&gt;access + refresh token&lt;/div&gt;" style="text;html=1;align=center;verticalAlign=middle;resizable=0;points=[];autosize=1;strokeColor=none;fillColor=none;" vertex="1" parent="1">
          <mxGeometry x="790" y="222.75" width="140" height="40" as="geometry" />
        </mxCell>
        <mxCell id="78FdNrDkZpptgmzAhslT-32" value="8. req resource with access+token" style="text;html=1;align=center;verticalAlign=middle;resizable=0;points=[];autosize=1;strokeColor=none;fillColor=none;" vertex="1" parent="1">
          <mxGeometry x="830" y="80" width="210" height="30" as="geometry" />
        </mxCell>
        <mxCell id="78FdNrDkZpptgmzAhslT-34" value="9. response back with data" style="text;html=1;align=center;verticalAlign=middle;resizable=0;points=[];autosize=1;strokeColor=none;fillColor=none;" vertex="1" parent="1">
          <mxGeometry x="860" y="140" width="170" height="30" as="geometry" />
        </mxCell>
        <mxCell id="78FdNrDkZpptgmzAhslT-36" value="&lt;font style=&quot;font-size: 24px;&quot;&gt;&lt;b&gt;OAUTH 2.0 Flow&lt;/b&gt;&lt;/font&gt;" style="text;html=1;align=center;verticalAlign=middle;resizable=0;points=[];autosize=1;strokeColor=none;fillColor=none;" vertex="1" parent="1">
          <mxGeometry x="335" y="23" width="210" height="40" as="geometry" />
        </mxCell>
        <mxCell id="78FdNrDkZpptgmzAhslT-40" value="User" style="image;aspect=fixed;perimeter=ellipsePerimeter;html=1;align=center;shadow=0;dashed=0;spacingTop=3;image=img/lib/active_directory/user_accounts.svg;" vertex="1" parent="1">
          <mxGeometry x="40" y="356" width="50" height="48.5" as="geometry" />
        </mxCell>
        <mxCell id="78FdNrDkZpptgmzAhslT-41" value="" style="endArrow=none;dashed=1;html=1;dashPattern=1 3;strokeWidth=2;rounded=0;" edge="1" parent="1">
          <mxGeometry width="50" height="50" relative="1" as="geometry">
            <mxPoint x="120" y="80" as="sourcePoint" />
            <mxPoint x="120" y="621" as="targetPoint" />
          </mxGeometry>
        </mxCell>
        <mxCell id="78FdNrDkZpptgmzAhslT-42" value="Authserver.com" style="image;aspect=fixed;perimeter=ellipsePerimeter;html=1;align=center;shadow=0;dashed=0;spacingTop=3;image=img/lib/active_directory/generic_server.svg;" vertex="1" parent="1">
          <mxGeometry x="650" y="280" width="190.4" height="340" as="geometry" />
        </mxCell>
        <mxCell id="78FdNrDkZpptgmzAhslT-43" value="" style="image;aspect=fixed;perimeter=ellipsePerimeter;html=1;align=center;shadow=0;dashed=0;spacingTop=3;image=img/lib/active_directory/web_server.svg;" vertex="1" parent="1">
          <mxGeometry x="670.2" y="52.51" width="150" height="187.49" as="geometry" />
        </mxCell>
        <mxCell id="78FdNrDkZpptgmzAhslT-44" value="Resource Server" style="image;aspect=fixed;perimeter=ellipsePerimeter;html=1;align=center;shadow=0;dashed=0;spacingTop=3;image=img/lib/active_directory/generic_server.svg;" vertex="1" parent="1">
          <mxGeometry x="1090" y="60" width="100" height="178.57" as="geometry" />
        </mxCell>
        <mxCell id="78FdNrDkZpptgmzAhslT-45" value="" style="endArrow=classic;html=1;rounded=0;entryX=0;entryY=0.25;entryDx=0;entryDy=0;" edge="1" parent="1" target="78FdNrDkZpptgmzAhslT-44">
          <mxGeometry width="50" height="50" relative="1" as="geometry">
            <mxPoint x="810" y="105" as="sourcePoint" />
            <mxPoint x="610" y="310" as="targetPoint" />
          </mxGeometry>
        </mxCell>
        <mxCell id="78FdNrDkZpptgmzAhslT-46" value="" style="endArrow=classic;html=1;rounded=0;entryX=1;entryY=0.75;entryDx=0;entryDy=0;exitX=0;exitY=0.75;exitDx=0;exitDy=0;" edge="1" parent="1" source="78FdNrDkZpptgmzAhslT-44" target="78FdNrDkZpptgmzAhslT-43">
          <mxGeometry width="50" height="50" relative="1" as="geometry">
            <mxPoint x="560" y="360" as="sourcePoint" />
            <mxPoint x="610" y="310" as="targetPoint" />
          </mxGeometry>
        </mxCell>
      </root>
    </mxGraphModel>
  </diagram>
</mxfile>
